<svg xmlns="http://www.w3.org/2000/svg" data-name="Layer 2" viewBox="0 0 29.24 37.37"><path d="M24.35 18.74c-2.41 3.73-4.93 8.05-6.94 12.29-.21.45-.66.74-1.15.75l-2.31.06c-.28 0-.53-.1-.72-.3-1.12-1.2-5.75-5.92-8.34-8.35a.553.553 0 0 1-.03-.78c2.01-2.12 4.01-1.66 5.55-.11 1.33 1.34 3.24 3.13 4.33 4.27 4.34-8.02 8.11-13.87 11.04-17.63.9-1.15 1-2.76.21-3.99q-.825-1.29-2.19-2.31C21.45.88 18.03-.01 13.55-.01H1.35C.61 0 0 .61 0 1.35v34.44c0 .87.71 1.58 1.58 1.58h13.04q7.26 0 10.95-2.67c2.45-1.78 3.68-4.27 3.68-7.48 0-2.17-.49-3.99-1.47-5.45-.87-1.29-2.02-2.29-3.43-3.04Z" data-name="Layer 1" style="fill:#1b2f28"/></svg>